<svg id="Capa_1" data-name="Capa 1" xmlns="http://www.w3.org/2000/svg" viewBox="0 0 1366 120"><defs><style>.cls-1{fill:#24211e;fill-rule:evenodd;}.cls-2{fill:none;stroke:#000;stroke-miterlimit:10;}.cls-3{font-size:55.4px;fill:#0071bc;font-family:Neogrey-Medium, Neogrey Medium;}</style></defs><title>Mesa de trabajo 1</title><path class="cls-1" d="M41.23,18a8.87,8.87,0,1,1-8.82,8.87A8.87,8.87,0,0,1,41.23,18"/><path class="cls-1" d="M9.1,46.63v0a1.75,1.75,0,0,0,0,.32,1.1,1.1,0,0,0,.78,1,6.54,6.54,0,0,0,2.43.33,5.57,5.57,0,0,0,2-.28c.47-.18.71-.43.71-.75,0-.49-.94-.87-2.8-1.18l-.49-.08L11.11,46c-3-.49-4.87-1-5.72-1.58a2.9,2.9,0,0,1-.93-1,2.63,2.63,0,0,1-.31-1.28,2.89,2.89,0,0,1,2-2.65,15.38,15.38,0,0,1,6-.91,14.7,14.7,0,0,1,5.77.85,2.78,2.78,0,0,1,1.87,2.62v.14H14.91v-.06c0-.41-.25-.71-.75-.92A5.89,5.89,0,0,0,12,40.9a5.14,5.14,0,0,0-1.72.23c-.4.15-.61.36-.61.64,0,.49,1.07.91,3.22,1.25l1,.15a32.91,32.91,0,0,1,3.26.66,8.45,8.45,0,0,1,1.67.65A3.31,3.31,0,0,1,20,45.56,2.57,2.57,0,0,1,20.4,47q0,1.79-2.23,2.76a16.65,16.65,0,0,1-6.41,1,14.21,14.21,0,0,1-6-.93,3.11,3.11,0,0,1-1.85-3v-.17Zm13.46,3.89V38.76h14V41.3H27.81v1.87H35.9v2.5H27.81V48h9.08v2.57Zm16.53,0V38.76h6.66l7.12,7.89V38.76h5.05V50.52H51L44.12,42.6v7.92ZM71.5,45.83,69,41.56l-2.66,4.27Zm-8,4.69H58.22l8.14-11.76h5.83L80,50.52H74.1L72.91,48.4H64.75Z"/><path class="cls-1" d="M15.56,92l-4.7-4.42,14.3-24.82a2,2,0,0,0-1.76-3H0V53.5H37.67Z"/><path class="cls-1" d="M66.48,92l4.7-4.42L56.88,62.75a2,2,0,0,1,1.75-3H82V53.5H44.37Z"/><path class="cls-1" d="M41,60.06,41,60,62.25,95.06,56.62,98,42.94,75.09a2.07,2.07,0,0,0-3.56,0L25.78,98l-5.52-2.73L41,60.06"/><line class="cls-2" x1="105.26" y1="30.53" x2="105.26" y2="89.16"/><text class="cls-3" transform="translate(126.86 83.28)">BALANCE</text></svg>