<svg id="Capa_1" data-name="Capa 1" xmlns="http://www.w3.org/2000/svg" viewBox="0 0 447.45 104"><defs><style>.cls-1,.cls-3,.cls-4{fill:#fff;}.cls-1{fill-rule:evenodd;}.cls-2{fill:none;stroke:#fff;stroke-miterlimit:10;}.cls-3{font-size:55.4px;font-family:Neogrey-Medium, Neogrey Medium;}</style></defs><title>Mesa de trabajo 1</title><path class="cls-1" d="M41.23,0a8.87,8.87,0,1,1-8.82,8.87A8.87,8.87,0,0,1,41.23,0"/><path class="cls-1" d="M9.1,28.63v0a1.75,1.75,0,0,0,0,.32,1.1,1.1,0,0,0,.78,1,6.54,6.54,0,0,0,2.43.33,5.57,5.57,0,0,0,2-.28c.47-.18.71-.43.71-.75,0-.49-.94-.87-2.8-1.18l-.49-.08L11.11,28c-3-.49-4.87-1-5.72-1.58a2.9,2.9,0,0,1-.93-1,2.63,2.63,0,0,1-.31-1.28,2.89,2.89,0,0,1,2-2.65,15.38,15.38,0,0,1,6-.91,14.7,14.7,0,0,1,5.77.85,2.78,2.78,0,0,1,1.87,2.62v.14H14.91v-.06c0-.41-.25-.71-.75-.92A5.89,5.89,0,0,0,12,22.9a5.14,5.14,0,0,0-1.72.23c-.4.15-.61.36-.61.64,0,.49,1.07.91,3.22,1.25l1,.15a32.91,32.91,0,0,1,3.26.66,8.45,8.45,0,0,1,1.67.65A3.31,3.31,0,0,1,20,27.56,2.57,2.57,0,0,1,20.4,29q0,1.79-2.23,2.76a16.65,16.65,0,0,1-6.41,1,14.21,14.21,0,0,1-6-.93,3.11,3.11,0,0,1-1.85-3v-.17Zm13.46,3.89V20.76h14V23.3H27.81v1.87H35.9v2.5H27.81V30h9.08v2.57Zm16.53,0V20.76h6.66l7.12,7.89V20.76h5.05V32.52H51L44.12,24.6v7.92ZM71.5,27.83,69,23.56l-2.66,4.27Zm-8,4.69H58.22l8.14-11.76h5.83L80,32.52H74.1L72.91,30.4H64.75Z"/><path class="cls-1" d="M15.56,74l-4.7-4.42,14.3-24.82a2,2,0,0,0-1.76-3H0V35.5H37.67Z"/><path class="cls-1" d="M66.48,74l4.7-4.42L56.88,44.75a2,2,0,0,1,1.75-3H82V35.5H44.37Z"/><path class="cls-1" d="M41,42.06,41,42,62.25,77.06,56.62,80,42.94,57.09a2.07,2.07,0,0,0-3.56,0L25.78,80l-5.52-2.73L41,42.06"/><line class="cls-2" x1="105.26" y1="12.53" x2="105.26" y2="71.16"/><text class="cls-3" transform="translate(126.86 65.28)">BALANCE</text><path class="cls-4" d="M130.07,82.58V93.23h-1.94V82.58Z"/><path class="cls-4" d="M132.31,87.83c0-.89,0-1.63-.06-2.29h1.68l.08,1.14h0a2.66,2.66,0,0,1,2.37-1.31,2.22,2.22,0,0,1,2.13,1.42h0a2.91,2.91,0,0,1,.95-1,2.57,2.57,0,0,1,1.55-.46c1.28,0,2.58.87,2.58,3.33v4.54h-1.9V89c0-1.28-.44-2-1.38-2A1.48,1.48,0,0,0,139,88a2.78,2.78,0,0,0-.09.65v4.62H137V88.78c0-1.08-.43-1.83-1.33-1.83A1.52,1.52,0,0,0,134.32,88a1.67,1.67,0,0,0-.11.63v4.55h-1.9Z"/><path class="cls-4" d="M145.72,88.1c0-1,0-1.83-.06-2.56h1.71l.09,1.19h0a3,3,0,0,1,2.64-1.36c1.77,0,3.24,1.52,3.24,3.92,0,2.78-1.75,4.13-3.51,4.13a2.53,2.53,0,0,1-2.17-1h0v4h-1.94ZM147.66,90a2,2,0,0,0,.06.54,1.76,1.76,0,0,0,1.71,1.36c1.23,0,2-1,2-2.54,0-1.36-.66-2.47-1.91-2.47a1.81,1.81,0,0,0-1.74,1.44,1.77,1.77,0,0,0-.08.49Z"/><path class="cls-4" d="M155,82h2V93.23h-2Z"/><path class="cls-4" d="M160.41,89.93a2.09,2.09,0,0,0,2.37,2,5.78,5.78,0,0,0,2.13-.35l.28,1.34a7.25,7.25,0,0,1-2.69.47,3.64,3.64,0,0,1-4-3.89c0-2.13,1.3-4.14,3.76-4.14s3.32,2.05,3.32,3.75a4.83,4.83,0,0,1-.06.82Zm3.38-1.36a1.66,1.66,0,0,0-1.6-1.88,1.9,1.9,0,0,0-1.79,1.88Z"/><path class="cls-4" d="M167.19,87.83c0-.89,0-1.63-.06-2.29h1.68l.08,1.14h0a2.66,2.66,0,0,1,2.37-1.31,2.22,2.22,0,0,1,2.13,1.42h0a2.92,2.92,0,0,1,.95-1,2.57,2.57,0,0,1,1.55-.46c1.28,0,2.58.87,2.58,3.33v4.54h-1.9V89c0-1.28-.44-2-1.38-2a1.48,1.48,0,0,0-1.36,1,2.78,2.78,0,0,0-.09.65v4.62h-1.9V88.78c0-1.08-.43-1.83-1.33-1.83A1.52,1.52,0,0,0,169.2,88a1.66,1.66,0,0,0-.11.63v4.55h-1.9Z"/><path class="cls-4" d="M182,89.93a2.09,2.09,0,0,0,2.37,2,5.78,5.78,0,0,0,2.13-.35l.28,1.34a7.25,7.25,0,0,1-2.69.47,3.64,3.64,0,0,1-4-3.89c0-2.13,1.3-4.14,3.76-4.14s3.32,2.05,3.32,3.75a4.83,4.83,0,0,1-.06.82Zm3.38-1.36a1.66,1.66,0,0,0-1.6-1.88A1.9,1.9,0,0,0,182,88.57Z"/><path class="cls-4" d="M188.75,87.83c0-.89,0-1.63-.06-2.29h1.71l.09,1.15h0A2.78,2.78,0,0,1,193,85.36c1.34,0,2.73.87,2.73,3.3v4.57h-1.94V88.89c0-1.11-.41-1.94-1.47-1.94a1.63,1.63,0,0,0-1.52,1.14,2,2,0,0,0-.08.63v4.52h-2Z"/><path class="cls-4" d="M199.95,83.34v2.2h1.85V87h-1.85v3.4c0,.93.25,1.42,1,1.42a2.85,2.85,0,0,0,.76-.09l0,1.49a4.28,4.28,0,0,1-1.41.19,2.25,2.25,0,0,1-1.68-.63,3.07,3.07,0,0,1-.6-2.15V87h-1.11V85.54H198V83.8Z"/><path class="cls-4" d="M207.6,93.23l-.13-.85h0a2.86,2.86,0,0,1-2.28,1,2.29,2.29,0,0,1-2.42-2.29c0-1.94,1.72-2.92,4.57-2.91v-.13c0-.51-.21-1.34-1.56-1.34a4.08,4.08,0,0,0-2.07.57L203.28,86a5.54,5.54,0,0,1,2.78-.68c2.47,0,3.18,1.56,3.18,3.24v2.78a12.35,12.35,0,0,0,.11,1.85Zm-.25-3.76c-1.37,0-2.69.27-2.69,1.44A1,1,0,0,0,205.76,92,1.58,1.58,0,0,0,207.28,91a1.4,1.4,0,0,0,.06-.43Z"/><path class="cls-4" d="M217,93a5.63,5.63,0,0,1-2.18.4,3.7,3.7,0,0,1-4-3.92,4,4,0,0,1,4.28-4.11,4.86,4.86,0,0,1,1.88.36l-.35,1.45a3.44,3.44,0,0,0-1.47-.3,2.49,2.49,0,0,0,0,5,3.8,3.8,0,0,0,1.53-.3Z"/><path class="cls-4" d="M220.47,83.38a1.09,1.09,0,1,1-1.09-1.06A1,1,0,0,1,220.47,83.38Zm-2.07,9.85v-7.7h2v7.7Z"/><path class="cls-4" d="M229.76,89.31a3.81,3.81,0,0,1-4,4.09,3.72,3.72,0,0,1-3.86-4,3.8,3.8,0,0,1,4-4.08A3.69,3.69,0,0,1,229.76,89.31Zm-5.8.08c0,1.49.73,2.61,1.91,2.61s1.88-1.09,1.88-2.64c0-1.2-.54-2.58-1.87-2.58S224,88.11,224,89.39Zm4.22-7.19-1.94,2.34h-1.34l1.38-2.34Z"/><path class="cls-4" d="M231.36,87.83c0-.89,0-1.63-.06-2.29H233l.09,1.15h0a2.78,2.78,0,0,1,2.45-1.33c1.34,0,2.73.87,2.73,3.3v4.57h-1.94V88.89c0-1.11-.41-1.94-1.47-1.94a1.63,1.63,0,0,0-1.52,1.14,2,2,0,0,0-.08.63v4.52h-2Z"/><path class="cls-4" d="M250.77,82v9.06c0,.79,0,1.64.06,2.17H249.1L249,92h0a2.77,2.77,0,0,1-2.51,1.39c-1.83,0-3.29-1.57-3.29-3.94,0-2.58,1.6-4.11,3.45-4.11a2.45,2.45,0,0,1,2.17,1h0V82Zm-1.94,6.73a2.77,2.77,0,0,0,0-.51,1.7,1.7,0,0,0-1.68-1.38c-1.25,0-1.94,1.11-1.94,2.55s.7,2.43,1.93,2.43a1.72,1.72,0,0,0,1.68-1.37,2.19,2.19,0,0,0,.06-.57Z"/><path class="cls-4" d="M254.24,89.93a2.09,2.09,0,0,0,2.37,2,5.78,5.78,0,0,0,2.13-.35l.29,1.34a7.25,7.25,0,0,1-2.69.47,3.64,3.64,0,0,1-4-3.89c0-2.13,1.3-4.14,3.76-4.14s3.32,2.05,3.32,3.75a4.82,4.82,0,0,1-.06.82Zm3.38-1.36a1.66,1.66,0,0,0-1.6-1.88,1.9,1.9,0,0,0-1.79,1.88Z"/><path class="cls-4" d="M264.29,82h2V93.23h-2Z"/><path class="cls-4" d="M272.69,93.23l-.13-.85h0a2.86,2.86,0,0,1-2.28,1,2.28,2.28,0,0,1-2.42-2.29c0-1.94,1.72-2.92,4.57-2.91v-.13c0-.51-.21-1.34-1.56-1.34a4.08,4.08,0,0,0-2.07.57L268.37,86a5.54,5.54,0,0,1,2.78-.68c2.47,0,3.18,1.56,3.18,3.24v2.78a12.33,12.33,0,0,0,.11,1.85Zm-.25-3.76c-1.38,0-2.69.27-2.69,1.44A1,1,0,0,0,270.85,92,1.58,1.58,0,0,0,272.37,91a1.39,1.39,0,0,0,.06-.43Z"/><path class="cls-4" d="M276.29,91.45a4.34,4.34,0,0,0,2,.55c.85,0,1.23-.35,1.23-.85s-.32-.79-1.26-1.12c-1.5-.52-2.13-1.34-2.12-2.25,0-1.36,1.12-2.42,2.91-2.42a4.52,4.52,0,0,1,2,.46l-.38,1.38a3.46,3.46,0,0,0-1.63-.44c-.7,0-1.08.33-1.08.81s.36.73,1.34,1.07c1.39.51,2,1.22,2.06,2.36,0,1.39-1.09,2.4-3.13,2.4a5,5,0,0,1-2.34-.54Z"/><path class="cls-4" d="M287.74,84.21h-3V82.58h8v1.63h-3.07v9h-1.94Z"/><path class="cls-4" d="M295.94,82.58V93.23H294V82.58Z"/><path class="cls-4" d="M305.81,92.92a6.73,6.73,0,0,1-2.75.47c-3.38,0-5.44-2.12-5.44-5.36a5.36,5.36,0,0,1,5.69-5.63,6.13,6.13,0,0,1,2.59.47l-.43,1.55a5.17,5.17,0,0,0-2.09-.41c-2.17,0-3.73,1.36-3.73,3.92a3.5,3.5,0,0,0,3.71,3.84,5.44,5.44,0,0,0,2.12-.4Z"/><path class="cls-4" d="M310.66,88.1c0-1,0-1.83-.06-2.56h1.71l.09,1.19h0a3,3,0,0,1,2.64-1.36c1.77,0,3.24,1.52,3.24,3.92,0,2.78-1.75,4.13-3.51,4.13a2.53,2.53,0,0,1-2.17-1h0v4h-1.94ZM312.61,90a2,2,0,0,0,.06.54,1.76,1.76,0,0,0,1.71,1.36c1.23,0,2-1,2-2.54,0-1.36-.66-2.47-1.91-2.47a1.81,1.81,0,0,0-1.74,1.44,1.78,1.78,0,0,0-.08.49Z"/><path class="cls-4" d="M319.91,88c0-1,0-1.79-.06-2.48h1.69L321.6,87h.06a2.3,2.3,0,0,1,2.1-1.64,2.07,2.07,0,0,1,.46,0v1.83a2.73,2.73,0,0,0-.57-.06,1.71,1.71,0,0,0-1.74,1.47,3.36,3.36,0,0,0-.06.6v4h-1.94Z"/><path class="cls-4" d="M332.72,89.31a3.81,3.81,0,0,1-4,4.09,3.72,3.72,0,0,1-3.86-4,3.8,3.8,0,0,1,4-4.08A3.69,3.69,0,0,1,332.72,89.31Zm-5.8.08c0,1.49.73,2.61,1.91,2.61s1.88-1.09,1.88-2.64c0-1.2-.54-2.58-1.87-2.58S326.91,88.11,326.91,89.39Z"/><path class="cls-4" d="M340,93a5.63,5.63,0,0,1-2.18.4,3.7,3.7,0,0,1-4-3.92,4,4,0,0,1,4.28-4.11,4.86,4.86,0,0,1,1.88.36l-.35,1.45a3.44,3.44,0,0,0-1.47-.3,2.49,2.49,0,0,0,0,5,3.8,3.8,0,0,0,1.53-.3Z"/><path class="cls-4" d="M342.65,89.93a2.09,2.09,0,0,0,2.37,2,5.78,5.78,0,0,0,2.13-.35l.29,1.34a7.25,7.25,0,0,1-2.69.47,3.64,3.64,0,0,1-4-3.89c0-2.13,1.3-4.14,3.76-4.14s3.32,2.05,3.32,3.75a4.82,4.82,0,0,1-.06.82ZM346,88.57a1.66,1.66,0,0,0-1.6-1.88,1.9,1.9,0,0,0-1.79,1.88Z"/><path class="cls-4" d="M349.33,91.45a4.34,4.34,0,0,0,2,.55c.85,0,1.23-.35,1.23-.85s-.32-.79-1.26-1.12c-1.5-.52-2.13-1.34-2.12-2.25,0-1.36,1.12-2.42,2.91-2.42a4.52,4.52,0,0,1,2,.46l-.38,1.38a3.46,3.46,0,0,0-1.63-.44c-.7,0-1.08.33-1.08.81s.36.73,1.34,1.07c1.39.51,2,1.22,2.06,2.36,0,1.39-1.09,2.4-3.13,2.4a5,5,0,0,1-2.34-.54Z"/><path class="cls-4" d="M363.34,89.31a3.81,3.81,0,0,1-4,4.09,3.72,3.72,0,0,1-3.86-4,3.8,3.8,0,0,1,4-4.08A3.69,3.69,0,0,1,363.34,89.31Zm-5.8.08c0,1.49.73,2.61,1.91,2.61s1.88-1.09,1.88-2.64c0-1.2-.54-2.58-1.87-2.58S357.54,88.11,357.54,89.39Z"/><path class="cls-4" d="M364.84,91.45a4.34,4.34,0,0,0,2,.55c.85,0,1.23-.35,1.23-.85s-.32-.79-1.26-1.12c-1.5-.52-2.13-1.34-2.12-2.25,0-1.36,1.12-2.42,2.91-2.42a4.52,4.52,0,0,1,2,.46l-.38,1.38a3.46,3.46,0,0,0-1.63-.44c-.7,0-1.08.33-1.08.81s.36.73,1.34,1.07c1.39.51,2,1.22,2.06,2.36,0,1.39-1.09,2.4-3.13,2.4a5,5,0,0,1-2.34-.54Z"/><path class="cls-4" d="M381.9,82v9.06c0,.79,0,1.64.06,2.17h-1.74L380.15,92h0a2.77,2.77,0,0,1-2.51,1.39c-1.83,0-3.29-1.57-3.29-3.94,0-2.58,1.6-4.11,3.45-4.11a2.45,2.45,0,0,1,2.17,1h0V82ZM380,88.74a2.77,2.77,0,0,0,0-.51,1.7,1.7,0,0,0-1.68-1.38c-1.25,0-1.94,1.11-1.94,2.55s.7,2.43,1.93,2.43a1.72,1.72,0,0,0,1.68-1.37,2.19,2.19,0,0,0,.06-.57Z"/><path class="cls-4" d="M385.36,89.93a2.09,2.09,0,0,0,2.37,2,5.78,5.78,0,0,0,2.13-.35l.29,1.34a7.25,7.25,0,0,1-2.69.47,3.64,3.64,0,0,1-4-3.89c0-2.13,1.3-4.14,3.76-4.14s3.32,2.05,3.32,3.75a4.82,4.82,0,0,1-.06.82Zm3.38-1.36a1.66,1.66,0,0,0-1.6-1.88,1.9,1.9,0,0,0-1.79,1.88Z"/><path class="cls-4" d="M393.71,95a2.18,2.18,0,0,0,1.45-.55c.36-.4.51-1,.51-2.67V85.54h1.94v6.81a4.34,4.34,0,0,1-1,3.29,4.1,4.1,0,0,1-2.72.9Zm4-11.63a1,1,0,0,1-1.11,1,1,1,0,0,1-1.06-1,1,1,0,0,1,1.09-1.06A1,1,0,0,1,397.73,83.38Z"/><path class="cls-4" d="M407,89.31a3.81,3.81,0,0,1-4,4.09,3.72,3.72,0,0,1-3.86-4,3.8,3.8,0,0,1,4-4.08A3.69,3.69,0,0,1,407,89.31Zm-5.8.08c0,1.49.73,2.61,1.91,2.61S405,90.91,405,89.36c0-1.2-.54-2.58-1.87-2.58S401.21,88.11,401.21,89.39Z"/><path class="cls-4" d="M409.7,85.54l1.39,4.13c.16.47.32,1.06.43,1.5h0c.13-.44.27-1,.41-1.52l1.2-4.11h2.09l-1.93,5.25c-1.06,2.88-1.77,4.16-2.69,4.95a3.9,3.9,0,0,1-2,1l-.44-1.64a3.34,3.34,0,0,0,1.14-.54,3.41,3.41,0,0,0,1.06-1.22.78.78,0,0,0,.13-.35.82.82,0,0,0-.11-.38l-2.81-7.07Z"/><path class="cls-4" d="M417.55,89.93a2.09,2.09,0,0,0,2.37,2,5.78,5.78,0,0,0,2.13-.35l.28,1.34a7.24,7.24,0,0,1-2.69.47,3.64,3.64,0,0,1-4-3.89c0-2.13,1.3-4.14,3.76-4.14s3.32,2.05,3.32,3.75a4.82,4.82,0,0,1-.06.82Zm3.38-1.36a1.66,1.66,0,0,0-1.6-1.88,1.9,1.9,0,0,0-1.79,1.88Z"/><path class="cls-4" d="M424.33,88c0-1,0-1.79-.06-2.48H426L426,87h.06a2.3,2.3,0,0,1,2.1-1.64,2.07,2.07,0,0,1,.46,0v1.83a2.73,2.73,0,0,0-.57-.06,1.71,1.71,0,0,0-1.74,1.47,3.36,3.36,0,0,0-.06.6v4h-1.94Z"/><path class="cls-4" d="M430,93.23v-7.7h2v7.7Zm3.35-11-1.94,2.34H430l1.38-2.34Z"/><path class="cls-4" d="M438.34,93.23l-.13-.85h0a2.86,2.86,0,0,1-2.28,1,2.28,2.28,0,0,1-2.42-2.29c0-1.94,1.72-2.92,4.57-2.91v-.13c0-.51-.21-1.34-1.56-1.34a4.08,4.08,0,0,0-2.07.57L434,86a5.54,5.54,0,0,1,2.78-.68c2.47,0,3.18,1.56,3.18,3.24v2.78a12.33,12.33,0,0,0,.11,1.85Zm-.25-3.76c-1.38,0-2.69.27-2.69,1.44A1,1,0,0,0,436.51,92,1.58,1.58,0,0,0,438,91a1.39,1.39,0,0,0,.06-.43Z"/></svg>